<svg height="409pt" viewBox="-47 0 409 409.59915" width="409pt" xmlns="http://www.w3.org/2000/svg">
    <path d="m7.125 75.09375 150.1875-47.789062 150.1875 47.789062v163.871094c0 33.914062-22.730469 76.902344-50.742188 96.003906l-99.445312 67.804688-99.445312-67.804688c-28.023438-19.105469-50.742188-62.109375-50.742188-96.003906zm0 0" 
    fill="#17A2B8" />
    <path d="m157.3125 409.597656c-1.34375 0-2.6875-.394531-3.847656-1.183594l-99.441406-67.804687c-30.125-20.535156-53.722657-65.1875-53.722657-101.644531v-163.871094c0-2.972656 1.921875-5.605469 4.753907-6.507812l150.1875-47.785157c1.347656-.425781 2.792968-.425781 4.140624 0l150.1875 47.785157c2.832032.902343 4.757813 3.535156 4.757813 6.507812v163.871094c0 36.453125-23.601563 81.105468-53.726563 101.644531l-99.445312 67.804687c-1.15625.789063-2.5 1.183594-3.84375 1.183594zm-143.359375-329.511718v158.878906c0 31.871094 21.425781 72.414062 47.761719 90.363281l95.597656 65.179687 95.597656-65.179687c26.335938-17.957031 47.761719-58.496094 47.761719-90.363281v-158.878906l-143.359375-45.617188zm0 0" fill="#17A2B8" />
    <path d="m7.125 54.613281 150.1875-47.789062 150.1875 47.789062v163.871094c0 33.914063-22.730469 76.90625-50.742188 96.003906l-99.445312 67.804688-99.445312-67.804688c-28.023438-19.105469-50.742188-62.105469-50.742188-96.003906zm0 0"
     fill="#e5f8fc" />
    <path d="m157.3125 389.121094c-1.34375 0-2.6875-.398438-3.847656-1.1875l-99.441406-67.804688c-30.125-20.535156-53.722657-65.1875-53.722657-101.644531v-163.871094c0-2.972656 1.921875-5.605469 4.753907-6.507812l150.1875-47.785157c1.347656-.425781 2.792968-.425781 4.140624 0l150.1875 47.785157c2.832032.902343 4.757813 3.535156 4.757813 6.507812v163.871094c0 36.453125-23.601563 81.105469-53.726563 101.644531l-99.445312 67.804688c-1.15625.789062-2.5 1.1875-3.84375 1.1875zm-143.359375-329.515625v158.878906c0 31.871094 21.425781 72.414063 47.761719 90.363281l95.597656 65.179688 95.597656-65.179688c26.335938-17.957031 47.761719-58.496094 47.761719-90.363281v-158.878906l-143.359375-45.617188zm0 0" 
    fill="#17A2B8" />
    <path d="m41.257812 85.144531 116.054688-37.359375 116.054688 37.359375v114.652344c0 33.953125-22.652344 77.105469-50.566407 96.359375l-65.488281 45.175781-65.488281-45.175781c-27.925781-19.265625-50.566407-62.402344-50.566407-96.359375zm0 0" 
    fill="#afe4ed" fill-rule="evenodd" />
    <path d="m157.3125 348.160156c-1.351562 0-2.710938-.402344-3.875-1.207031l-65.488281-45.179687c-30.011719-20.699219-53.515625-65.496094-53.515625-101.976563v-114.652344c0-2.960937 1.914062-5.585937 4.730468-6.496093l116.054688-37.359376c1.359375-.441406 2.828125-.441406 4.1875 0l116.050781 37.359376c2.820313.90625 4.734375 3.535156 4.734375 6.496093v114.652344c0 36.484375-23.507812 81.28125-53.515625 101.980469l-65.488281 45.175781c-1.164062.804687-2.519531 1.207031-3.875 1.207031zm-109.226562-258.039062v109.675781c0 31.921875 21.359374 72.628906 47.617187 90.738281l61.609375 42.503906 61.609375-42.503906c26.257813-18.109375 47.617187-58.816406 47.617187-90.738281v-109.675781l-109.226562-35.164063zm0 0"
     fill="#17A2B8" />
    <path d="m132.199219 109.226562c-17.773438 0-29.5 20.410157-29.5 45.589844 0 25.179688 11.726562 104.597656 29.5 104.597656 10.371093 0 11.550781-65.949218 25.480469-66.011718 16.613281.0625 15.109374 66.011718 25.476562 66.011718 17.773438 0 29.503906-79.417968 29.503906-104.597656 0-25.179687-11.726562-45.589844-29.503906-45.589844-8.492188 0-16.984375 8.042969-25.476562 8.042969-8.492188 0-16.984376-8.042969-25.480469-8.042969zm0 0" 
    fill="#e5f8fc" />
    <path d="m183.15625 266.238281c-10.304688 0-12.605469-13.070312-16.089844-32.847656-1.671875-9.476563-5.035156-28.585937-8.964844-32.640625-3.308593 4.542969-6.664062 21.324219-8.53125 30.648438-4.195312 20.980468-6.96875 34.839843-17.371093 34.839843-7.417969 0-18.398438-4.996093-28.078125-48.1875-5.359375-23.917969-8.25-50.429687-8.25-63.230469 0-30.375 15.277344-52.421874 36.328125-52.421874 5.785156 0 11.03125 2.488281 15.664062 4.679687 3.652344 1.730469 7.105469 3.367187 9.816407 3.367187 2.710937 0 6.164062-1.632812 9.816406-3.367187 4.628906-2.191406 9.878906-4.679687 15.660156-4.679687 21.050781 0 36.328125 22.046874 36.328125 52.421874 0 12.800782-2.890625 39.3125-8.25 63.230469-9.679687 43.191407-20.660156 48.1875-28.078125 48.1875zm-50.957031-150.1875c-12.925781 0-22.671875 16.667969-22.671875 38.769531 0 30.804688 11.703125 87.488282 21.121094 96.644532 1.941406-4.78125 4.050781-15.339844 5.53125-22.742188 4.519531-22.582031 8.421874-42.085937 21.46875-42.140625 15.042968.050781 19.019531 22.617188 22.863281 44.4375 1.15625 6.5625 2.792969 15.847657 4.390625 20.386719 9.257812-9.273438 20.925781-65.828125 20.925781-96.585938 0-22.101562-9.746094-38.769531-22.671875-38.769531-2.710938 0-6.160156 1.636719-9.816406 3.367188-4.628906 2.195312-9.875 4.679687-15.660156 4.679687-5.785157 0-11.03125-2.484375-15.664063-4.679687-3.652344-1.730469-7.105469-3.367188-9.816406-3.367188zm0 0"
     fill="#17A2B8" />
    <g fill="#fff">
        <path d="m239.234375 129.707031c-3.773437 0-6.828125-3.058593-6.828125-6.828125v-27.304687c0-3.773438 3.054688-6.828125 6.828125-6.828125 3.769531 0 6.824219 3.054687 6.824219 6.828125v27.304687c0 3.769532-3.054688 6.828125-6.824219 6.828125zm0 0" />
        <path d="m252.886719 116.050781h-27.308594c-3.769531 0-6.824219-3.054687-6.824219-6.824219 0-3.769531 3.054688-6.828124 6.824219-6.828124h27.308594c3.769531 0 6.828125 3.058593 6.828125 6.828124 0 3.769532-3.058594 6.824219-6.828125 6.824219zm0 0" />
        <path d="m61.734375 109.230469c-2.96875 0-5.703125-1.957031-6.558594-4.953125-1.035156-3.628906 1.0625-7.40625 4.6875-8.441406l47.785157-13.652344c3.628906-1.042969 7.40625 1.0625 8.441406 4.6875s-1.066406 7.402344-4.6875 8.4375l-47.789063 13.65625c-.625.175781-1.257812.265625-1.878906.265625zm0 0" />
    </g>
</svg>